HIERARCHY
ROOT Hips
{
	OFFSET 0.00 0.00 0.00
	CHANNELS 6 Xposition Yposition Zposition Xrotation Yrotation Zrotation
	JOINT Spine
	{
		OFFSET 0.00000 4.88528 0.00000
		CHANNELS 3 Xrotation Yrotation Zrotation
		JOINT Head
		{
			OFFSET 0.00000 16.49416 0.00000
			CHANNELS 3 Xrotation Yrotation Zrotation
			End Site
			{
				OFFSET 0.00000 4.52755 0.00000
			}
		}
		JOINT LeftShoulder
		{
			OFFSET 0.00000 10.66345 0.00000
			CHANNELS 3 Xrotation Yrotation Zrotation
			JOINT LeftArm
			{
				OFFSET 7.53191 0.00000 0.00000
				CHANNELS 3 Xrotation Yrotation Zrotation
				JOINT LeftForeArm
				{
					OFFSET 10.22920 0.00000 0.00000
					CHANNELS 3 Yrotation Zrotation Xrotation
					JOINT LeftHand
					{
						OFFSET 8.67349 0.00000 0.00000
						CHANNELS 3 Xrotation Yrotation Zrotation
						JOINT LeftHandThumb1
						{
							OFFSET 0.00000 0.00000 0.00000
							CHANNELS 3 Xrotation Zrotation Yrotation
							End Site
							{
								OFFSET 0.00000 0.00000 3.93700
							}
						}
						End Site
						{
							OFFSET 3.93700 0.00000 0.00000
						}
					}
				}
			}
		}
		JOINT RightShoulder
		{
			OFFSET 0.00000 10.66345 0.00000
			CHANNELS 3 Xrotation Yrotation Zrotation
			JOINT RightArm
			{
				OFFSET -7.53191 0.00000 0.00000
				CHANNELS 3 Xrotation Yrotation Zrotation
				JOINT RightForeArm
				{
					OFFSET -10.22920 0.00000 0.00000
					CHANNELS 3 Yrotation Zrotation Xrotation
					JOINT RightHand
					{
						OFFSET -8.67349 0.00000 0.00000
						CHANNELS 3 Xrotation Yrotation Zrotation
						JOINT RightHandThumb1
						{
							OFFSET 0.00000 0.00000 0.00000
							CHANNELS 3 Xrotation Zrotation Yrotation
							End Site
							{
								OFFSET 0.00000 0.00000 3.93700
							}
						}
						End Site
						{
							OFFSET -3.93700 0.00000 0.00000
						}
					}
				}
			}
		}
	}
	JOINT LeftUpLeg
	{
		OFFSET 2.67219 0.00000 0.00000
		CHANNELS 3 Xrotation Yrotation Zrotation
		JOINT LeftLeg
		{
			OFFSET 0.00000 -16.26339 0.00000
			CHANNELS 3 Xrotation Yrotation Zrotation
			JOINT LeftFoot
			{
				OFFSET 0.00000 -14.32816 0.00000
				CHANNELS 3 Xrotation Yrotation Zrotation
				JOINT LeftToeBase
				{
					OFFSET 0.00000 -1.30219 4.85985
					CHANNELS 3 Xrotation Yrotation Zrotation
					End Site
					{
						OFFSET 0.00000 0.00000 2.95275
					}
				}
			}
		}
	}
	JOINT RightUpLeg
	{
		OFFSET -2.67219 0.00000 0.00000
		CHANNELS 3 Xrotation Yrotation Zrotation
		JOINT RightLeg
		{
			OFFSET 0.00000 -16.26339 0.00000
			CHANNELS 3 Xrotation Yrotation Zrotation
			JOINT RightFoot
			{
				OFFSET 0.00000 -14.32816 0.00000
				CHANNELS 3 Xrotation Yrotation Zrotation
				JOINT RightToeBase
				{
					OFFSET 0.00000 -1.30219 4.85985
					CHANNELS 3 Xrotation Yrotation Zrotation
					End Site
					{
						OFFSET 0.00000 0.00000 2.95275
					}
				}
			}
		}
	}
}
MOTION
Frames: 22
Frame Time: 0.008333
 3.1888 33.5768 -4.6876 -15.9965 -12.0137 -32.6050 14.6624 2.0362 19.7293 14.1427 -14.0596 13.6546 32.3002 32.4537 20.9142 -67.9022 4.3766 -29.8163 -8.7470 -0.0000 4.1917 1.2173 -9.1954 7.5743 33.1476 -0.0000 26.2537 -0.6226 -6.7764 -17.4509 -12.2963 -1.4852 65.1190 16.8359 0.0000 -4.8634 -0.4863 4.2175 6.5836 32.8623 0.0000 -24.3270 6.7684 4.5615 22.1691 19.5974 0.0000 0.0000 -14.7557 25.4988 8.5570 -8.6945 0.0000 0.0000 -95.2002 -2.0362 -33.7692 -0.9977 0.0000 -0.0000 43.1518 -14.0232 1.7166 31.2653 0.0000 0.0000
 3.1711 33.5099 -4.6951 -15.9257 -11.9479 -32.5771 14.7766 1.8098 19.8020 13.8044 -13.9650 13.5084 31.8739 32.4183 21.1681 -68.1572 4.4211 -29.3397 -8.8440 -0.0000 4.4124 1.2654 -9.1838 7.8796 33.1476 -0.0000 26.2537 -0.8278 -6.5878 -17.4132 -12.2380 -1.5621 65.1273 16.8320 0.0000 -4.7390 -0.4873 4.0653 6.8409 32.8623 0.0000 -24.3270 6.9197 4.7510 22.2573 19.3271 -0.0000 -0.0000 -15.7254 25.1536 8.0095 -8.1706 0.0000 0.0000 -95.9147 -1.6887 -33.9718 -0.9826 -0.0000 0.0000 43.0924 -14.0433 1.7030 31.3024 -0.0000 -0.0000
 3.1511 33.4425 -4.7066 -15.8986 -11.8571 -32.5478 14.9732 1.5947 19.8145 13.4332 -13.8741 13.4592 31.5340 32.4188 21.3255 -68.3536 4.3409 -28.8474 -9.0090 -0.0000 4.4547 1.3429 -9.1634 8.3742 33.1476 -0.0000 26.2537 -1.0271 -6.4292 -17.2668 -12.2280 -1.6536 65.0630 16.8359 0.0000 -4.6853 -0.4837 3.8631 7.1427 32.8623 0.0000 -24.3270 6.9834 4.9771 22.3545 19.2659 0.0000 -0.0000 -16.6946 24.8480 7.3478 -7.8066 -0.0000 -0.0000 -96.5422 -1.3742 -34.1466 -0.9236 0.0000 -0.0000 43.0238 -14.0783 1.6821 31.3254 -0.0000 -0.0000
 3.1331 33.3749 -4.7211 -15.9034 -11.7709 -32.4053 15.2417 1.3839 19.6570 12.9532 -13.8240 13.4725 31.2124 32.4278 21.4174 -68.6554 4.2542 -28.3372 -9.1218 -0.0000 4.5308 1.4433 -9.1611 8.9924 33.1476 -0.0000 26.2537 -1.2737 -6.3031 -17.0249 -12.2039 -1.7327 64.9813 16.8676 0.0000 -4.5597 -0.4794 3.7896 7.2155 32.8623 0.0000 -24.3270 6.9144 5.1610 22.3192 19.4386 -0.0000 -0.0000 -17.4584 24.5706 6.8405 -7.1448 0.0000 -0.0000 -97.0981 -0.9301 -34.2648 -0.7671 -0.0000 0.0000 42.9358 -14.1722 1.6525 31.3818 0.0000 -0.0000
 3.1168 33.3186 -4.7405 -16.0449 -11.6952 -32.2204 15.6559 1.2709 19.3590 12.4642 -13.7948 13.5950 30.9538 32.4629 21.4427 -69.0611 4.1869 -27.8929 -9.3457 -0.0000 4.5239 1.5584 -9.1081 9.7516 33.1476 -0.0000 26.2537 -1.4867 -6.1694 -16.6467 -12.1842 -1.9014 64.8455 17.0075 0.0000 -4.3916 -0.4653 3.7192 7.1369 32.8623 0.0000 -24.3270 6.7427 5.4464 22.2678 19.8926 -0.0000 -0.0000 -18.0387 24.2215 6.0569 -6.7573 0.0000 0.0000 -97.4748 -0.4806 -34.2645 -0.5742 -0.0000 0.0000 42.8583 -14.3143 1.6439 31.3485 -0.0000 -0.0000
 3.1114 33.2739 -4.7505 -16.2525 -11.5096 -31.9589 16.1684 1.1349 19.0040 12.0108 -13.8406 13.7067 30.8863 32.5147 21.3576 -69.6619 4.1752 -27.5677 -9.6141 -0.0000 4.4862 1.7111 -9.1281 10.6642 33.1476 -0.0000 26.2537 -1.6341 -6.1212 -16.2162 -12.2136 -2.0772 64.6749 17.1823 0.0000 -4.2744 -0.4535 3.7328 6.9317 32.8623 0.0000 -24.3270 6.6320 5.5185 22.1148 20.5301 -0.0000 -0.0000 -18.5685 24.0450 5.0428 -6.1488 -0.0000 -0.0000 -97.7620 -0.1003 -34.3199 -0.3155 0.0000 -0.0000 42.7586 -14.4587 1.7257 31.4220 -0.0000 0.0000
 3.0995 33.2426 -4.7727 -16.7158 -11.4582 -31.7567 16.9103 1.2953 18.5447 11.4517 -14.0760 13.9508 30.8212 32.5801 21.2686 -70.1572 4.1805 -27.3124 -9.9669 -0.0000 4.2185 1.8651 -9.2483 11.4544 33.1476 -0.0000 26.2537 -1.8502 -6.0920 -15.7908 -12.1788 -2.2998 64.5987 17.4586 0.0000 -4.1469 -0.4490 3.8255 6.6995 32.8623 0.0000 -24.3270 6.5569 5.9299 22.0076 21.2620 -0.0000 0.0000 -18.8109 23.7260 3.8899 -6.0719 -0.0000 -0.0000 -97.8365 0.1718 -34.0756 -0.0005 0.0000 -0.0000 42.6736 -14.6793 1.6835 31.3954 -0.0000 0.0000
 3.0944 33.2166 -4.7891 -17.1654 -11.3460 -31.4735 17.6734 1.3479 18.0164 10.8914 -14.1094 14.1465 30.8122 32.7944 21.2130 -70.6101 4.2091 -27.3215 -10.2616 -0.0000 3.8680 2.0652 -9.4184 12.4270 33.1476 -0.0000 26.2537 -1.9093 -6.0805 -15.3978 -12.1801 -2.4563 64.5990 17.8104 0.0000 -4.1256 -0.4436 3.9447 6.4214 32.8623 0.0000 -24.3270 6.5517 6.2017 21.8085 21.9777 0.0000 -0.0000 -18.9859 23.4294 2.6345 -5.7094 -0.0000 0.0000 -97.8700 0.4730 -33.9016 0.4271 -0.0000 0.0000 42.6573 -14.8504 1.8487 31.4122 0.0000 -0.0000
 3.0975 33.1977 -4.7978 -17.6290 -11.1680 -31.1862 18.4071 1.4787 17.5343 10.4294 -14.2390 14.3138 30.9477 32.9562 21.2015 -71.1512 4.3469 -27.5061 -10.5846 -0.0000 3.6450 2.2168 -9.5867 13.0852 33.1476 -0.0000 26.2537 -1.8770 -6.1710 -15.1100 -12.1428 -2.6388 64.6896 18.1971 0.0000 -4.1273 -0.4453 4.1788 6.0887 32.8623 0.0000 -24.3270 6.7071 6.3794 21.5797 22.5243 -0.0000 -0.0000 -19.1152 23.1466 1.3602 -5.1935 0.0000 0.0000 -97.8514 0.6982 -33.7964 0.9781 -0.0000 0.0000 42.6913 -14.8814 1.8419 31.4610 -0.0000 -0.0000
 3.1032 33.1836 -4.8065 -18.0387 -11.0162 -30.9674 19.0274 1.6690 17.1840 10.0457 -14.4414 14.3746 31.1188 33.0469 21.2374 -71.5133 4.5123 -27.7798 -10.8878 -0.0000 3.3504 2.2872 -9.8274 13.1707 33.1476 -0.0000 26.2537 -1.6193 -6.3343 -14.9613 -12.2287 -2.8552 64.9129 18.6159 0.0000 -4.0624 -0.4308 4.3546 5.6554 32.8623 0.0000 -24.3270 6.9023 6.5457 21.3906 22.8770 0.0000 -0.0000 -19.2011 22.9507 0.4258 -4.8333 0.0000 -0.0000 -97.8169 0.8590 -33.7224 1.6378 -0.0000 -0.0000 42.8215 -14.8172 1.9677 31.5409 -0.0000 -0.0000
 3.1119 33.1724 -4.8149 -18.3638 -10.8704 -30.7558 19.5319 1.8124 16.8995 9.7649 -14.6110 14.3677 31.3358 33.1278 21.2472 -71.7385 4.6216 -28.1077 -11.1296 -0.0000 3.0972 2.3119 -10.0561 13.0186 33.1476 -0.0000 26.2537 -1.2676 -6.5212 -14.9000 -12.3121 -2.9394 65.2127 19.0066 0.0000 -4.0418 -0.4285 4.5583 5.3762 32.8623 0.0000 -24.3270 7.1745 6.6287 21.1667 22.9914 -0.0000 -0.0000 -19.3202 22.8400 -0.2098 -4.6399 -0.0000 0.0000 -97.7221 1.1085 -33.6953 2.3803 0.0000 -0.0000 43.1307 -14.7872 2.0017 31.3112 0.0000 0.0000
 3.1236 33.1643 -4.8195 -18.5858 -10.7610 -30.6048 19.8531 1.9468 16.7542 9.6252 -14.7617 14.2544 31.6033 33.1762 21.1915 -71.7903 4.5211 -28.4900 -11.1683 -0.0000 2.9665 2.2460 -10.1831 12.5082 33.1476 -0.0000 26.2537 -0.8653 -6.7070 -14.9040 -12.3326 -2.8725 65.5097 19.3474 0.0000 -4.1168 -0.4351 4.7215 5.2710 32.8623 0.0000 -24.3270 7.4295 6.7440 20.9966 22.9365 0.0000 0.0000 -19.4818 22.6621 -0.7145 -4.2759 0.0000 -0.0000 -97.6639 1.3066 -33.7157 3.2146 -0.0000 0.0000 43.4116 -14.7713 2.2047 31.2928 0.0000 0.0000
 3.1393 33.1588 -4.8248 -18.6661 -10.6803 -30.5095 19.9744 2.0176 16.7449 9.6626 -14.9022 14.0955 31.8125 33.1842 21.1366 -71.6517 4.3303 -28.9151 -11.1371 -0.0000 2.9458 2.1540 -10.2339 11.9528 33.1476 -0.0000 26.2537 -0.4013 -6.8917 -14.9328 -12.3797 -2.6788 65.7818 19.6019 0.0000 -4.2083 -0.4462 4.7861 5.3329 32.8623 0.0000 -24.3270 7.6114 6.8211 20.8661 22.7644 0.0000 0.0000 -19.6824 22.5076 -0.9076 -3.8122 0.0000 -0.0000 -97.5645 1.5534 -33.7975 4.0782 -0.0000 0.0000 43.6353 -14.8254 2.4000 31.2557 0.0000 -0.0000
 3.1561 33.1584 -4.8268 -18.6889 -10.5991 -30.4513 20.0061 2.0294 16.8249 9.8033 -15.0028 13.8551 31.9620 33.1159 21.0368 -71.2522 3.9853 -29.3062 -11.0495 -0.0000 2.8973 2.0090 -10.1330 11.2759 33.1476 -0.0000 26.2537 0.0121 -7.0442 -14.9755 -12.3633 -2.3346 66.0106 19.7265 0.0000 -4.3272 -0.4726 4.8439 5.5789 32.8623 0.0000 -24.3270 7.7584 6.9035 20.7951 22.5543 -0.0000 -0.0000 -19.7789 22.3180 -1.1417 -3.4910 0.0000 -0.0000 -97.3809 1.8794 -33.9146 5.0425 0.0000 -0.0000 43.6941 -14.9679 2.5242 31.2521 0.0000 0.0000
 3.1754 33.1615 -4.8337 -18.5633 -10.5297 -30.3765 19.8473 1.9367 16.9354 10.1442 -15.0957 13.6480 32.1116 33.0089 20.9341 -70.8069 3.6343 -29.6803 -10.9303 -0.0000 2.9040 1.8336 -10.0322 10.4132 33.1476 -0.0000 26.2537 0.3005 -7.1371 -14.9880 -12.2295 -1.8883 66.1839 19.7370 0.0000 -4.4824 -0.4980 4.8305 5.8930 32.8623 0.0000 -24.3270 7.7403 6.9226 20.7520 22.3566 -0.0000 0.0000 -19.8370 22.1932 -1.5386 -3.1619 -0.0000 -0.0000 -97.2098 2.3181 -34.0795 6.1123 0.0000 -0.0000 43.6727 -15.2105 2.6398 31.2453 -0.0000 -0.0000
 3.1961 33.1671 -4.8415 -18.3243 -10.4734 -30.2404 19.5615 1.7245 17.0096 10.5751 -15.1309 13.4327 32.1329 32.8703 20.8377 -70.1762 3.1945 -30.0357 -10.7848 -0.0000 3.0355 1.6539 -9.8366 9.5929 33.1476 -0.0000 26.2537 0.4987 -7.1888 -14.9611 -12.0210 -1.3747 66.3190 19.6952 0.0000 -4.5558 -0.5127 4.7367 6.1848 32.8623 0.0000 -24.3270 7.5802 6.8690 20.6948 22.2374 0.0000 -0.0000 -19.8704 22.1198 -2.2687 -2.7400 -0.0000 0.0000 -96.9983 2.9747 -34.2699 7.3009 -0.0000 -0.0000 43.6844 -15.5119 2.8002 31.2793 -0.0000 0.0000
 3.2169 33.1776 -4.8545 -18.0271 -10.4351 -30.0796 19.2059 1.4903 17.0602 11.0636 -15.1556 13.2286 31.9987 32.6280 20.8033 -69.3936 2.7721 -30.3446 -10.6197 -0.0000 3.2370 1.4839 -9.6776 8.7606 33.1476 -0.0000 26.2537 0.5307 -7.2252 -14.9092 -11.7348 -0.8877 66.4240 19.5868 0.0000 -4.5333 -0.5381 4.5988 6.6815 32.8623 0.0000 -24.3270 7.2603 6.8528 20.7003 22.2434 -0.0000 0.0000 -19.7725 21.9271 -3.4617 -2.1773 -0.0000 -0.0000 -96.6953 3.7480 -34.4490 8.4949 0.0000 0.0000 43.8375 -15.8117 3.1917 31.3531 -0.0000 0.0000
 3.2353 33.1911 -4.8703 -17.6886 -10.4240 -29.9015 18.8013 1.1937 17.0714 11.5881 -15.0872 13.0425 31.9620 32.4335 20.7076 -68.8175 2.5346 -30.6317 -10.5576 -0.0000 3.6425 1.3122 -9.4411 7.9495 33.1476 -0.0000 26.2537 0.4914 -7.1696 -14.8285 -11.3833 -0.4968 66.5079 19.5032 0.0000 -4.4342 -0.5509 4.4020 7.1410 32.8623 0.0000 -24.3270 6.8937 6.7736 20.6984 22.2692 -0.0000 0.0000 -19.5941 21.8170 -4.7299 -1.6873 -0.0000 0.0000 -96.4003 4.5637 -34.5911 9.7535 -0.0000 0.0000 44.1407 -15.9562 3.6733 31.3687 -0.0000 -0.0000
 3.2232 33.2273 -4.8941 -17.3701 -10.3318 -30.1267 18.4435 0.9964 17.4375 12.0924 -14.8067 12.8748 31.8093 32.2519 20.6945 -68.2846 2.3803 -31.0084 -10.5128 -0.0000 3.9599 1.2163 -9.3402 7.4530 33.1476 -0.0000 26.2537 0.5020 -7.1818 -14.6514 -11.1563 -0.1069 66.5367 19.3296 0.0000 -4.1489 -0.5525 4.2571 7.4015 32.8623 0.0000 -24.3270 6.3856 6.9154 21.2573 22.3668 0.0000 -0.0000 -19.3106 21.4495 -6.0620 -1.4451 0.0000 -0.0000 -96.4608 4.2047 -34.7672 10.8966 0.0000 -0.0000 44.2346 -15.5612 3.1500 31.7551 -0.0000 -0.0000
 3.2399 33.2473 -4.9156 -17.0567 -10.3207 -29.9924 18.1015 0.6906 17.4532 12.5393 -14.7143 12.7545 31.6824 32.0763 20.6236 -67.8023 2.3725 -31.3428 -10.5093 -0.0000 4.2824 1.1121 -9.2867 6.8591 33.1476 -0.0000 26.2537 0.4526 -7.0973 -14.5447 -10.9134 0.1659 66.6019 19.1682 0.0000 -3.8941 -0.5625 4.1390 7.7461 32.8623 0.0000 -24.3270 5.8888 7.0442 21.3705 22.4539 -0.0000 -0.0000 -19.0061 21.0727 -7.0455 -1.4236 -0.0000 -0.0000 -96.0818 4.7813 -34.8530 11.9106 0.0000 -0.0000 44.5927 -15.2208 3.5379 31.7515 0.0000 0.0000
 3.2605 33.2670 -4.9418 -16.7173 -10.3383 -29.8148 17.7514 0.4191 17.4195 12.8894 -14.6618 12.6340 31.6766 31.9674 20.4693 -67.5766 2.4501 -31.7236 -10.4956 -0.0000 4.5589 1.0212 -9.3354 6.2710 33.1476 -0.0000 26.2537 0.3336 -7.0401 -14.4410 -10.6300 0.4477 66.6574 18.9963 0.0000 -3.7795 -0.5752 4.0950 8.0030 32.8623 0.0000 -24.3270 5.5092 6.9506 21.3553 22.3998 0.0000 0.0000 -18.6258 20.9703 -7.8244 -1.4580 -0.0000 0.0000 -95.6075 5.4224 -34.9006 12.7624 0.0000 -0.0000 44.8271 -14.9190 4.0780 31.8280 0.0000 0.0000
 3.2828 33.2875 -4.9646 -16.4564 -10.3603 -29.6440 17.4697 0.2166 17.3595 13.2001 -14.6546 12.5602 31.6268 31.8566 20.3497 -67.4321 2.6290 -32.1416 -10.4932 -0.0000 4.8338 0.9564 -9.3049 5.8950 33.1476 -0.0000 26.2537 0.3409 -7.0065 -14.3448 -10.4955 0.5434 66.7315 18.8796 0.0000 -3.6010 -0.5719 3.9810 8.1824 32.8623 0.0000 -24.3270 5.1983 7.0380 21.3242 22.2451 -0.0000 -0.0000 -18.2210 20.7453 -8.3549 -1.4738 -0.0000 -0.0000 -95.0902 5.9151 -34.8958 13.4871 0.0000 -0.0000 44.8928 -14.6861 4.5027 31.7564 0.0000 -0.0000
